<svg width="20" height="20" viewBox="0 0 20 20" fill="none" xmlns="http://www.w3.org/2000/svg">
<path d="M14.6079 12.1719C14.6079 13.0119 14.8469 13.3469 15.4719 13.3469C16.8649 13.3469 17.7519 11.5719 17.7519 8.61989C17.7519 4.10789 14.4639 1.94789 10.3589 1.94789C6.13595 1.94789 2.29495 4.77989 2.29495 10.1319C2.29495 15.2439 5.65495 18.0279 10.8149 18.0279C12.5669 18.0279 13.7429 17.8359 15.5419 17.2359L15.9279 18.8429C14.1519 19.4199 12.2539 19.5869 10.7909 19.5869C4.02295 19.5869 0.397949 15.8669 0.397949 10.1309C0.397949 4.34689 4.59895 0.410889 10.3829 0.410889C16.4069 0.410889 19.5979 4.01089 19.5979 8.42689C19.5979 12.1709 18.4229 15.0269 14.7269 15.0269C13.0459 15.0269 11.9429 14.3549 11.7989 12.8659C11.3669 14.5219 10.2149 15.0269 8.65395 15.0269C6.56595 15.0269 4.81395 13.4179 4.81395 10.1789C4.81395 6.91489 6.35095 4.89889 9.11095 4.89889C10.5749 4.89889 11.4869 5.47489 11.8929 6.38689L12.5899 5.11489H14.6059V12.1719H14.6079V12.1719ZM11.6569 9.00389C11.6569 7.68489 10.6719 7.13189 9.85595 7.13189C8.96795 7.13189 7.98495 7.85089 7.98495 9.96389C7.98495 11.6439 8.72895 12.5799 9.85595 12.5799C10.6479 12.5799 11.6569 12.0759 11.6569 10.6839V9.00389Z" fill="white"/>
</svg>
