<svg width="26" height="21" viewBox="0 0 26 21" fill="none" xmlns="http://www.w3.org/2000/svg">
<path d="M12.6573 5.98182L4.65511 12.5725V19.6858C4.65511 19.87 4.72827 20.0466 4.85851 20.1769C4.98874 20.3071 5.16538 20.3803 5.34955 20.3803L10.2133 20.3677C10.3968 20.3668 10.5726 20.2932 10.7021 20.1631C10.8316 20.0329 10.9042 19.8568 10.9042 19.6732V15.5192C10.9042 15.335 10.9774 15.1583 11.1076 15.0281C11.2379 14.8979 11.4145 14.8247 11.5987 14.8247H14.3765C14.5606 14.8247 14.7373 14.8979 14.8675 15.0281C14.9977 15.1583 15.0709 15.335 15.0709 15.5192V19.6702C15.0706 19.7616 15.0884 19.8521 15.1231 19.9366C15.1579 20.0211 15.209 20.0979 15.2735 20.1626C15.3381 20.2274 15.4147 20.2787 15.4991 20.3137C15.5835 20.3488 15.674 20.3668 15.7654 20.3668L20.6273 20.3803C20.8115 20.3803 20.9881 20.3071 21.1184 20.1769C21.2486 20.0466 21.3218 19.87 21.3218 19.6858V12.5678L13.3213 5.98182C13.2273 5.90601 13.1101 5.86467 12.9893 5.86467C12.8685 5.86467 12.7513 5.90601 12.6573 5.98182V5.98182ZM25.2975 10.4614L21.669 7.47054V1.45882C21.669 1.32069 21.6141 1.18821 21.5164 1.09054C21.4188 0.992862 21.2863 0.937988 21.1482 0.937988H18.7176C18.5795 0.937988 18.447 0.992862 18.3493 1.09054C18.2516 1.18821 18.1968 1.32069 18.1968 1.45882V4.6103L14.3109 1.41325C13.938 1.10638 13.4701 0.938602 12.9871 0.938602C12.5042 0.938602 12.0363 1.10638 11.6634 1.41325L0.676812 10.4614C0.624072 10.505 0.580438 10.5586 0.548403 10.619C0.516368 10.6795 0.496561 10.7457 0.490112 10.8138C0.483663 10.8819 0.490699 10.9506 0.510818 11.016C0.530937 11.0814 0.563745 11.1422 0.607367 11.1949L1.71414 12.5404C1.75764 12.5933 1.81115 12.6371 1.8716 12.6693C1.93205 12.7015 1.99826 12.7215 2.06643 12.728C2.13461 12.7346 2.20341 12.7277 2.26889 12.7076C2.33438 12.6876 2.39527 12.6548 2.44808 12.6112L12.6573 4.20231C12.7513 4.1265 12.8685 4.08515 12.9893 4.08515C13.1101 4.08515 13.2273 4.1265 13.3213 4.20231L23.531 12.6112C23.5837 12.6548 23.6445 12.6876 23.7099 12.7077C23.7753 12.7278 23.844 12.7349 23.9121 12.7284C23.9802 12.722 24.0464 12.7022 24.1069 12.6701C24.1673 12.6381 24.2209 12.5945 24.2645 12.5417L25.3713 11.1962C25.4148 11.1432 25.4475 11.0821 25.4674 11.0164C25.4873 10.9507 25.494 10.8818 25.4871 10.8135C25.4803 10.7452 25.46 10.679 25.4274 10.6185C25.3949 10.5581 25.3507 10.5047 25.2975 10.4614V10.4614Z" fill="black"/>
</svg>
