<svg width="18" height="18" viewBox="0 0 18 18" fill="none" xmlns="http://www.w3.org/2000/svg">
<path d="M17.119 9.27579L9.61899 0.942461C9.30316 0.590794 8.69649 0.590794 8.38066 0.942461L0.880657 9.27579C0.772704 9.39546 0.701844 9.54391 0.676694 9.70309C0.651544 9.86228 0.673186 10.0253 0.73899 10.1725C0.872324 10.4733 1.17066 10.6666 1.49982 10.6666H3.16649V16.5C3.16649 16.721 3.25429 16.9329 3.41057 17.0892C3.56685 17.2455 3.77881 17.3333 3.99982 17.3333H6.49982C6.72084 17.3333 6.9328 17.2455 7.08908 17.0892C7.24536 16.9329 7.33316 16.721 7.33316 16.5V13.1666H10.6665V16.5C10.6665 16.721 10.7543 16.9329 10.9106 17.0892C11.0668 17.2455 11.2788 17.3333 11.4998 17.3333H13.9998C14.2208 17.3333 14.4328 17.2455 14.5891 17.0892C14.7454 16.9329 14.8332 16.721 14.8332 16.5V10.6666H16.4998C16.6612 10.6673 16.8193 10.621 16.9549 10.5334C17.0904 10.4458 17.1975 10.3206 17.2631 10.1732C17.3288 10.0258 17.3501 9.86241 17.3245 9.70306C17.2989 9.54372 17.2275 9.39526 17.119 9.27579V9.27579Z" fill="white"/>
</svg>
