<svg width="20" height="20" viewBox="0 0 20 20" fill="none" xmlns="http://www.w3.org/2000/svg">
<path d="M8.79503 5.19994L5.97586 1.94578C5.65086 1.57078 5.05503 1.57244 4.67753 1.95078L2.3592 4.27328C1.6692 4.96411 1.4717 5.98994 1.87086 6.81244C4.25555 11.7499 8.23757 15.7375 13.1717 18.1291C13.9934 18.5283 15.0184 18.3308 15.7084 17.6399L18.0484 15.2958C18.4275 14.9166 18.4284 14.3174 18.05 13.9924L14.7834 11.1883C14.4417 10.8949 13.9109 10.9333 13.5684 11.2766L12.4317 12.4149C12.3735 12.4759 12.2969 12.5161 12.2137 12.5294C12.1304 12.5426 12.0451 12.5282 11.9709 12.4883C10.1129 11.4184 8.57169 9.87514 7.5042 8.01578C7.46422 7.9414 7.44974 7.85597 7.46299 7.77257C7.47624 7.68918 7.51647 7.61244 7.57753 7.55411L8.71086 6.41994C9.0542 6.07494 9.0917 5.54161 8.79503 5.19911V5.19994Z" stroke="white" stroke-width="2" stroke-linecap="round" stroke-linejoin="round"/>
</svg>
