<svg width="17" height="16" viewBox="0 0 17 16" fill="none" xmlns="http://www.w3.org/2000/svg">
<path d="M17.0001 8.0999C17.0001 7.0999 16.2001 6.2999 15.2001 6.3999C14.8001 6.3999 14.3001 6.5999 14.0001 6.8999C12.6001 5.9999 11.0001 5.3999 9.3001 5.3999L10.1001 1.5999L12.7001 2.1999C12.7001 2.8999 13.3001 3.3999 14.0001 3.3999C14.7001 3.3999 15.2001 2.7999 15.2001 2.0999C15.2001 1.3999 14.6001 0.899902 13.9001 0.899902C13.4001 0.899902 13.0001 1.1999 12.8001 1.5999L10.0001 0.899902H9.8001C9.7001 0.899902 9.7001 0.999902 9.7001 1.0999L8.7001 5.3999C7.0001 5.3999 5.4001 5.8999 4.0001 6.8999C3.3001 6.1999 2.2001 6.1999 1.5001 6.8999C0.800098 7.5999 0.800098 8.6999 1.5001 9.3999C1.6001 9.4999 1.8001 9.6999 2.0001 9.6999V10.1999C2.0001 12.8999 5.1001 15.0999 9.0001 15.0999C12.9001 15.0999 16.0001 12.8999 16.0001 10.1999V9.6999C16.6001 9.3999 17.0001 8.7999 17.0001 8.0999V8.0999ZM5.0001 9.3999C5.0001 8.6999 5.6001 8.1999 6.2001 8.1999C6.9001 8.1999 7.4001 8.7999 7.4001 9.3999C7.4001 9.9999 6.8001 10.5999 6.2001 10.5999C5.5001 10.5999 5.0001 10.0999 5.0001 9.3999ZM12.0001 12.6999C11.1001 13.2999 10.1001 13.6999 9.0001 13.5999C7.9001 13.5999 6.9001 13.2999 6.0001 12.6999C5.9001 12.5999 5.9001 12.3999 6.0001 12.1999C6.1001 12.0999 6.3001 12.0999 6.4001 12.1999C7.1001 12.6999 8.0001 12.9999 8.9001 12.8999C9.8001 12.9999 10.7001 12.6999 11.4001 12.1999C11.5001 12.0999 11.7001 12.0999 11.9001 12.1999C12.1001 12.2999 12.1001 12.4999 12.0001 12.6999ZM11.7001 10.5999C11.0001 10.5999 10.5001 9.9999 10.5001 9.3999C10.5001 8.7999 11.1001 8.1999 11.7001 8.1999C12.4001 8.1999 12.9001 8.7999 12.9001 9.3999C13.0001 10.0999 12.4001 10.5999 11.7001 10.5999Z" fill="white"/>
</svg>
