<svg width="20" height="19" viewBox="0 0 20 19" fill="none" xmlns="http://www.w3.org/2000/svg">
<path d="M18.5198 0.995492C18.2728 1.01346 18.0304 1.07141 17.802 1.16707H17.7989C17.5796 1.25401 16.5371 1.69257 14.9521 2.35734L9.27233 4.74943C5.19678 6.46521 1.19048 8.15483 1.19048 8.15483L1.23818 8.13636C1.23818 8.13636 0.961963 8.22715 0.673435 8.42489C0.495185 8.53832 0.341801 8.68673 0.222563 8.86114C0.0809917 9.06888 -0.0328806 9.38665 0.00943683 9.71519C0.0786835 10.2707 0.438766 10.6039 0.697287 10.7877C0.958886 10.9739 1.20817 11.0609 1.20817 11.0609H1.21433L4.97135 12.3266C5.13985 12.8674 6.11622 16.0774 6.35089 16.8168C6.48939 17.2585 6.62403 17.5347 6.79253 17.7455C6.87409 17.8532 6.9695 17.9432 7.08414 18.0156C7.14374 18.0502 7.20728 18.0776 7.27341 18.0971L7.23494 18.0879C7.24648 18.091 7.25572 18.1002 7.26418 18.1033C7.29496 18.1117 7.31573 18.1148 7.35497 18.121C7.94972 18.301 8.42752 17.9317 8.42752 17.9317L8.45445 17.9101L10.6727 15.8905L14.3904 18.7426L14.4751 18.7788C15.2499 19.1189 16.0347 18.9296 16.4494 18.5957C16.8672 18.2595 17.0295 17.8294 17.0295 17.8294L17.0564 17.7601L19.9294 3.04212C20.011 2.67896 20.0317 2.33888 19.9417 2.0088C19.8489 1.67474 19.6345 1.38743 19.3408 1.20323C19.0941 1.05329 18.8081 0.98091 18.5198 0.995492V0.995492ZM18.4421 2.57278C18.4391 2.62125 18.4483 2.61586 18.4267 2.70896V2.71743L15.5807 17.2823C15.5684 17.3031 15.5476 17.3485 15.4907 17.3939C15.4307 17.4416 15.383 17.4716 15.1329 17.3723L10.5857 13.8861L7.83893 16.3898L8.41598 12.7043L15.8454 5.77967C16.1516 5.49499 16.0493 5.43497 16.0493 5.43497C16.0708 5.08566 15.5869 5.33264 15.5869 5.33264L6.21856 11.1363L6.21548 11.1209L1.72522 9.60901V9.60593L1.71367 9.60362C1.72155 9.60101 1.72925 9.59793 1.73676 9.59439L1.76138 9.58208L1.78523 9.57362C1.78523 9.57362 5.79461 7.884 9.87016 6.16822C11.9106 5.30879 13.9665 4.44321 15.5476 3.77536C16.4853 3.38066 17.424 2.98826 18.3637 2.59817C18.4267 2.57355 18.3967 2.57355 18.4421 2.57355V2.57278Z" fill="white"/>
</svg>
