<svg width="320" height="320" viewBox="0 0 320 320" xmlns="http://www.w3.org/2000/svg" shape-rendering="crispEdges"><rect width="100%" height="100%" fill="#e2d6e2" /><rect width="140" height="10" x="90" y="210" fill="#f98f30" /><rect width="140" height="10" x="90" y="220" fill="#f98f30" /><rect width="140" height="10" x="90" y="230" fill="#f98f30" /><rect width="140" height="10" x="90" y="240" fill="#f98f30" /><rect width="20" height="10" x="90" y="250" fill="#f98f30" /><rect width="110" height="10" x="120" y="250" fill="#f98f30" /><rect width="20" height="10" x="90" y="260" fill="#f98f30" /><rect width="110" height="10" x="120" y="260" fill="#f98f30" /><rect width="20" height="10" x="90" y="270" fill="#f98f30" /><rect width="110" height="10" x="120" y="270" fill="#f98f30" /><rect width="20" height="10" x="90" y="280" fill="#f98f30" /><rect width="110" height="10" x="120" y="280" fill="#f98f30" /><rect width="20" height="10" x="90" y="290" fill="#f98f30" /><rect width="110" height="10" x="120" y="290" fill="#f98f30" /><rect width="20" height="10" x="90" y="300" fill="#f98f30" /><rect width="110" height="10" x="120" y="300" fill="#f98f30" /><rect width="20" height="10" x="90" y="310" fill="#f98f30" /><rect width="110" height="10" x="120" y="310" fill="#f98f30" /><rect width="40" height="10" x="160" y="240" fill="#0b5027" /><rect width="50" height="10" x="150" y="250" fill="#0b5027" /><rect width="50" height="10" x="150" y="260" fill="#0b5027" /><rect width="50" height="10" x="150" y="270" fill="#0b5027" /><rect width="40" height="10" x="150" y="280" fill="#0b5027" /><rect width="20" height="10" x="130" y="290" fill="#0b5027" /><rect width="10" height="10" x="130" y="30" fill="#04ffd1" /><rect width="10" height="10" x="160" y="30" fill="#04ffd1" /><rect width="30" height="10" x="60" y="40" fill="#625d5d" /><rect width="10" height="10" x="110" y="40" fill="#04ffd1" /><rect width="10" height="10" x="130" y="40" fill="#a9a7a7" /><rect width="10" height="10" x="140" y="40" fill="#04ffd1" /><rect width="10" height="10" x="160" y="40" fill="#a9a7a7" /><rect width="10" height="10" x="170" y="40" fill="#04ffd1" /><rect width="20" height="10" x="220" y="40" fill="#625d5d" /><rect width="20" height="10" x="50" y="50" fill="#625d5d" /><rect width="10" height="10" x="70" y="50" fill="#f99092" /><rect width="20" height="10" x="80" y="50" fill="#625d5d" /><rect width="10" height="10" x="120" y="50" fill="#04ffd1" /><rect width="10" height="10" x="140" y="50" fill="#a9a7a7" /><rect width="10" height="10" x="150" y="50" fill="#04cdff" /><rect width="10" height="10" x="170" y="50" fill="#a9a7a7" /><rect width="10" height="10" x="180" y="50" fill="#04cdff" /><rect width="10" height="10" x="210" y="50" fill="#625d5d" /><rect width="10" height="10" x="220" y="50" fill="#f99092" /><rect width="20" height="10" x="230" y="50" fill="#625d5d" /><rect width="10" height="10" x="50" y="60" fill="#625d5d" /><rect width="10" height="10" x="60" y="60" fill="#f99092" /><rect width="30" height="10" x="70" y="60" fill="#625d5d" /><rect width="20" height="10" x="100" y="60" fill="#a9a7a7" /><rect width="10" height="10" x="120" y="60" fill="#04cdff" /><rect width="10" height="10" x="140" y="60" fill="#a9a7a7" /><rect width="10" height="10" x="150" y="60" fill="#04cdff" /><rect width="10" height="10" x="170" y="60" fill="#a9a7a7" /><rect width="10" height="10" x="180" y="60" fill="#04cdff" /><rect width="10" height="10" x="190" y="60" fill="#d2d2d2" /><rect width="30" height="10" x="200" y="60" fill="#625d5d" /><rect width="10" height="10" x="230" y="60" fill="#f99092" /><rect width="10" height="10" x="240" y="60" fill="#625d5d" /><rect width="20" height="10" x="30" y="70" fill="#f31237" /><rect width="10" height="10" x="50" y="70" fill="#625d5d" /><rect width="10" height="10" x="60" y="70" fill="#f99092" /><rect width="40" height="10" x="70" y="70" fill="#625d5d" /><rect width="20" height="10" x="110" y="70" fill="#f31237" /><rect width="10" height="10" x="130" y="70" fill="#ffffff" /><rect width="30" height="10" x="140" y="70" fill="#f31237" /><rect width="10" height="10" x="170" y="70" fill="#ffffff" /><rect width="20" height="10" x="180" y="70" fill="#f31237" /><rect width="10" height="10" x="200" y="70" fill="#a9a7a7" /><rect width="20" height="10" x="210" y="70" fill="#625d5d" /><rect width="10" height="10" x="230" y="70" fill="#f99092" /><rect width="10" height="10" x="240" y="70" fill="#625d5d" /><rect width="30" height="10" x="30" y="80" fill="#f31237" /><rect width="20" height="10" x="60" y="80" fill="#625d5d" /><rect width="40" height="10" x="80" y="80" fill="#f31237" /><rect width="10" height="10" x="120" y="80" fill="#ffffff" /><rect width="10" height="10" x="130" y="80" fill="#f31237" /><rect width="10" height="10" x="140" y="80" fill="#ffffff" /><rect width="10" height="10" x="150" y="80" fill="#f31237" /><rect width="10" height="10" x="160" y="80" fill="#ffffff" /><rect width="10" height="10" x="170" y="80" fill="#f31237" /><rect width="10" height="10" x="180" y="80" fill="#ffffff" /><rect width="40" height="10" x="190" y="80" fill="#f31237" /><rect width="20" height="10" x="230" y="80" fill="#625d5d" /><rect width="40" height="10" x="50" y="90" fill="#f31237" /><rect width="10" height="10" x="90" y="90" fill="#999797" /><rect width="30" height="10" x="100" y="90" fill="#f31237" /><rect width="10" height="10" x="130" y="90" fill="#ffffff" /><rect width="20" height="10" x="140" y="90" fill="#f31237" /><rect width="10" height="10" x="160" y="90" fill="#ffffff" /><rect width="70" height="10" x="170" y="90" fill="#f31237" /><rect width="30" height="10" x="40" y="100" fill="#f31237" /><rect width="10" height="10" x="70" y="100" fill="#999797" /><rect width="150" height="10" x="80" y="100" fill="#d2d2d2" /><rect width="10" height="10" x="230" y="100" fill="#f31237" /><rect width="30" height="10" x="30" y="110" fill="#f31237" /><rect width="10" height="10" x="60" y="110" fill="#999797" /><rect width="10" height="10" x="70" y="110" fill="#786e71" /><rect width="10" height="10" x="80" y="110" fill="#999797" /><rect width="150" height="10" x="90" y="110" fill="#d2d2d2" /><rect width="10" height="10" x="240" y="110" fill="#786e71" /><rect width="20" height="10" x="30" y="120" fill="#f31237" /><rect width="20" height="10" x="50" y="120" fill="#786e71" /><rect width="10" height="10" x="70" y="120" fill="#999797" /><rect width="150" height="10" x="80" y="120" fill="#d2d2d2" /><rect width="10" height="10" x="230" y="120" fill="#a9a7a7" /><rect width="10" height="10" x="60" y="130" fill="#999797" /><rect width="170" height="10" x="70" y="130" fill="#d2d2d2" /><rect width="20" height="10" x="50" y="140" fill="#786e71" /><rect width="10" height="10" x="70" y="140" fill="#999797" /><rect width="160" height="10" x="80" y="140" fill="#d2d2d2" /><rect width="10" height="10" x="240" y="140" fill="#a9a7a7" /><rect width="10" height="10" x="60" y="150" fill="#999797" /><rect width="170" height="10" x="70" y="150" fill="#d2d2d2" /><rect width="10" height="10" x="50" y="160" fill="#786e71" /><rect width="10" height="10" x="60" y="160" fill="#999797" /><rect width="10" height="10" x="70" y="160" fill="#786e71" /><rect width="160" height="10" x="80" y="160" fill="#d2d2d2" /><rect width="10" height="10" x="240" y="160" fill="#999797" /><rect width="10" height="10" x="60" y="170" fill="#786e71" /><rect width="10" height="10" x="70" y="170" fill="#d2d2d2" /><rect width="10" height="10" x="80" y="170" fill="#999797" /><rect width="160" height="10" x="90" y="170" fill="#d2d2d2" /><rect width="10" height="10" x="250" y="170" fill="#999797" /><rect width="10" height="10" x="50" y="180" fill="#786e71" /><rect width="10" height="10" x="60" y="180" fill="#999797" /><rect width="170" height="10" x="80" y="180" fill="#d2d2d2" /><rect width="10" height="10" x="250" y="180" fill="#a9a7a7" /><rect width="10" height="10" x="260" y="180" fill="#999797" /><rect width="10" height="10" x="70" y="190" fill="#786e71" /><rect width="10" height="10" x="80" y="190" fill="#999797" /><rect width="80" height="10" x="90" y="190" fill="#d2d2d2" /><rect width="30" height="10" x="170" y="190" fill="#000000" /><rect width="60" height="10" x="200" y="190" fill="#d2d2d2" /><rect width="10" height="10" x="260" y="190" fill="#e8b3b3" /><rect width="10" height="10" x="270" y="190" fill="#c66264" /><rect width="10" height="10" x="60" y="200" fill="#786e71" /><rect width="10" height="10" x="70" y="200" fill="#999797" /><rect width="10" height="10" x="80" y="200" fill="#786e71" /><rect width="80" height="10" x="90" y="200" fill="#d2d2d2" /><rect width="10" height="10" x="170" y="200" fill="#000000" /><rect width="10" height="10" x="180" y="200" fill="#f99092" /><rect width="10" height="10" x="190" y="200" fill="#ffffff" /><rect width="10" height="10" x="200" y="200" fill="#000000" /><rect width="40" height="10" x="210" y="200" fill="#d2d2d2" /><rect width="10" height="10" x="250" y="200" fill="#e8b3b3" /><rect width="10" height="10" x="260" y="200" fill="#f99092" /><rect width="10" height="10" x="270" y="200" fill="#c66264" /><rect width="10" height="10" x="70" y="210" fill="#786e71" /><rect width="10" height="10" x="90" y="210" fill="#999797" /><rect width="80" height="10" x="100" y="210" fill="#d2d2d2" /><rect width="20" height="10" x="180" y="210" fill="#000000" /><rect width="40" height="10" x="200" y="210" fill="#d2d2d2" /><rect width="10" height="10" x="240" y="210" fill="#a9a7a7" /><rect width="10" height="10" x="250" y="210" fill="#999797" /><rect width="10" height="10" x="80" y="220" fill="#999797" /><rect width="10" height="10" x="90" y="220" fill="#786e71" /><rect width="10" height="10" x="100" y="220" fill="#999797" /><rect width="10" height="10" x="110" y="220" fill="#786e71" /><rect width="10" height="10" x="120" y="220" fill="#d2d2d2" /><rect width="10" height="10" x="130" y="220" fill="#999797" /><rect width="80" height="10" x="140" y="220" fill="#d2d2d2" /><rect width="10" height="10" x="220" y="220" fill="#999797" /><rect width="10" height="10" x="230" y="220" fill="#a9a7a7" /><rect width="10" height="10" x="100" y="230" fill="#786e71" /><rect width="10" height="10" x="120" y="230" fill="#999797" /><rect width="10" height="10" x="130" y="230" fill="#786e71" /><rect width="10" height="10" x="150" y="230" fill="#786e71" /><rect width="10" height="10" x="160" y="230" fill="#999797" /><rect width="10" height="10" x="170" y="230" fill="#786e71" /><rect width="10" height="10" x="180" y="230" fill="#999797" /><rect width="10" height="10" x="190" y="230" fill="#786e71" /><rect width="10" height="10" x="200" y="230" fill="#a9a7a7" /><rect width="10" height="10" x="210" y="230" fill="#999797" /><rect width="60" height="10" x="100" y="110" fill="#000000" /><rect width="60" height="10" x="170" y="110" fill="#000000" /><rect width="30" height="10" x="100" y="120" fill="#000000" /><rect width="10" height="10" x="130" y="120" fill="#ff0e0e" /><rect width="20" height="10" x="140" y="120" fill="#000000" /><rect width="30" height="10" x="170" y="120" fill="#000000" /><rect width="10" height="10" x="200" y="120" fill="#ff0e0e" /><rect width="20" height="10" x="210" y="120" fill="#000000" /><rect width="160" height="10" x="70" y="130" fill="#000000" /><rect width="10" height="10" x="70" y="140" fill="#000000" /><rect width="10" height="10" x="100" y="140" fill="#000000" /><rect width="10" height="10" x="110" y="140" fill="#0adc4d" /><rect width="20" height="10" x="120" y="140" fill="#000000" /><rect width="10" height="10" x="140" y="140" fill="#1929f4" /><rect width="10" height="10" x="150" y="140" fill="#000000" /><rect width="10" height="10" x="170" y="140" fill="#000000" /><rect width="10" height="10" x="180" y="140" fill="#0adc4d" /><rect width="20" height="10" x="190" y="140" fill="#000000" /><rect width="10" height="10" x="210" y="140" fill="#1929f4" /><rect width="10" height="10" x="220" y="140" fill="#000000" /><rect width="10" height="10" x="70" y="150" fill="#000000" /><rect width="60" height="10" x="100" y="150" fill="#000000" /><rect width="60" height="10" x="170" y="150" fill="#000000" /><rect width="60" height="10" x="100" y="160" fill="#000000" /><rect width="60" height="10" x="170" y="160" fill="#000000" /></svg>